<svg xmlns="http://www.w3.org/2000/svg" width="410" height="404" viewBox="0 0 410 404" fill="none">
  <path d="M399.641 59.5246C401.7 42.6441 385.63 29.3294 369.671 34.3809L25.0645 143.153C15.6313 146.111 9.7814 155.749 11.3802 165.492L38.0097 329.211C40.2918 343.337 55.1773 351.369 67.8844 345.197L154.928 303.503C167.883 297.206 182.875 304.699 186.273 318.795L201.423 381.45C204.728 395.154 221.727 400.547 231.418 390.422L261.418 359.422C265.631 355.19 267.695 349.255 266.916 343.331L243.222 167.517C241.315 153.206 255.866 141.648 269.392 146.309L392.541 189.887C406.068 194.548 420.62 182.988 418.711 168.677L399.641 59.5246Z" fill="url(#paint0_linear)"/>
  <path d="M292.965 1.5744C297.601 -4.0776 306.399 -3.38435 309.971 3.12323L408.302 177.547C411.582 183.467 408.079 190.827 401.594 192.225L255.642 223.649C249.862 224.887 244.451 220.446 244.643 214.527L249.39 67.1686C249.471 64.6726 250.323 62.2634 251.826 60.2886L292.965 1.5744Z" fill="url(#paint1_linear)"/>
  <defs>
    <linearGradient id="paint0_linear" x1="6.00017" y1="32.9999" x2="235" y2="344" gradientUnits="userSpaceOnUse">
      <stop stop-color="#41D1FF"/>
      <stop offset="1" stop-color="#BD34FE"/>
    </linearGradient>
    <linearGradient id="paint1_linear" x1="194.651" y1="8.81818" x2="236.076" y2="292.989" gradientUnits="userSpaceOnUse">
      <stop stop-color="#FFEA83"/>
      <stop offset="0.0833333" stop-color="#FFDD35"/>
      <stop offset="1" stop-color="#FFA800"/>
    </linearGradient>
  </defs>
</svg>
